# xmcd
# 
# Track frame offsets:
#     150
#     10954
#     25011
#     34778
#     47749
#     59015
#     68396
#     81568
#     95868
#     108285
#     119555
#     132977
#     147925
#     156675
#     164788
#     177989
#     189384
#     202484
#     217888
#     231925
# 
# Disc length: 3274 seconds
# 
# Revision: 1
# Processed by: cddbd v1.5.2PL0 Copyright (c) Steve Scherf et al.
# Submitted via: BonkEnc v1.0beta1
# 
DISCID=340cc814
DTITLE=Frank Sinatra - The Greatest Hits
DYEAR=1900
DGENRE=Blues
TTITLE0=NIGHT AND DAY
TTITLE1=BEGIN THE BEGUINE
TTITLE2=LOVE ME OR LEAVE ME
TTITLE3=DAY BY DAY
TTITLE4=THE SUNSHINE OF YOUR SMILE
TTITLE5=I'M IN THE MOOD FOR LOVE
TTITLE6=TWO IN LOVE
TTITLE7=YOU'RE LONELLY AND I'M LONELY
TTITLE8=FALLING IN LOVE WITH LOVE
TTITLE9=LONG AGO AND FAR AWAY
TTITLE10=WITH A SONG IN MY HEART
TTITLE11=NANCY WITCH THE LAUGHING FACE
TTITLE12=FOR YOU
TTITLE13=STARS IN YOUR EYES
TTITLE14=OH, WHAT A BEAUTIFUL MORNIN'G
TTITLE15=BLUE SKIES
TTITLE16=ALL OR NOTHING AT ALL
TTITLE17=YOU'LL NEVER WALK ALONE
TTITLE18=THESE FOOLISH THINGS
TTITLE19=THEY SAY IT'S WONDERFUL
EXTD=
EXTT0=
EXTT1=
EXTT2=
EXTT3=
EXTT4=
EXTT5=
EXTT6=
EXTT7=
EXTT8=
EXTT9=
EXTT10=
EXTT11=
EXTT12=
EXTT13=
EXTT14=
EXTT15=
EXTT16=
EXTT17=
EXTT18=
EXTT19=
PLAYORDER=
